<svg width="24" height="24" viewBox="0 0 24 24" fill="none" xmlns="http://www.w3.org/2000/svg">
<path opacity="0.4" fill-rule="evenodd" clip-rule="evenodd" d="M8.0625 6.78125C8.0625 7.24724 8.44026 7.625 8.90625 7.625C9.37224 7.625 9.75 7.24724 9.75 6.78125V4.25H14.8125V6.78125C14.8125 7.24724 15.1903 7.625 15.6562 7.625C16.1222 7.625 16.5 7.24724 16.5 6.78125V4.29789C19.2244 4.62236 21 6.56972 21 9.3485V17.1515C21 20.2016 18.8607 22.25 15.6756 22.25H8.3244C5.1402 22.25 3 20.2016 3 17.1515V9.3494C3 6.3837 5.0234 4.36417 8.0625 4.25468V6.78125ZM6.375 11.2812C6.375 10.8153 6.75276 10.4375 7.21875 10.4375H7.78125C8.24724 10.4375 8.625 10.8153 8.625 11.2812C8.625 11.7472 8.24724 12.125 7.78125 12.125H7.21875C6.75276 12.125 6.375 11.7472 6.375 11.2812ZM11.7188 10.4375C11.2528 10.4375 10.875 10.8153 10.875 11.2812C10.875 11.7472 11.2528 12.125 11.7188 12.125H12.2812C12.7472 12.125 13.125 11.7472 13.125 11.2812C13.125 10.8153 12.7472 10.4375 12.2812 10.4375H11.7188ZM10.875 14.6562C10.875 14.1903 11.2528 13.8125 11.7188 13.8125H12.2812C12.7472 13.8125 13.125 14.1903 13.125 14.6562C13.125 15.1222 12.7472 15.5 12.2812 15.5H11.7188C11.2528 15.5 10.875 15.1222 10.875 14.6562ZM7.21875 13.8125C6.75276 13.8125 6.375 14.1903 6.375 14.6562C6.375 15.1222 6.75276 15.5 7.21875 15.5H7.78125C8.24724 15.5 8.625 15.1222 8.625 14.6562C8.625 14.1903 8.24724 13.8125 7.78125 13.8125H7.21875ZM15.375 14.6562C15.375 14.1903 15.7528 13.8125 16.2188 13.8125H16.7812C17.2472 13.8125 17.625 14.1903 17.625 14.6562C17.625 15.1222 17.2472 15.5 16.7812 15.5H16.2188C15.7528 15.5 15.375 15.1222 15.375 14.6562ZM11.7188 17.1875C11.2528 17.1875 10.875 17.5653 10.875 18.0312C10.875 18.4972 11.2528 18.875 11.7188 18.875H12.2812C12.7472 18.875 13.125 18.4972 13.125 18.0312C13.125 17.5653 12.7472 17.1875 12.2812 17.1875H11.7188ZM6.375 18.0312C6.375 17.5653 6.75276 17.1875 7.21875 17.1875H7.78125C8.24724 17.1875 8.625 17.5653 8.625 18.0312C8.625 18.4972 8.24724 18.875 7.78125 18.875H7.21875C6.75276 18.875 6.375 18.4972 6.375 18.0312ZM16.2188 10.4375C15.7528 10.4375 15.375 10.8153 15.375 11.2812C15.375 11.7472 15.7528 12.125 16.2188 12.125H16.7812C17.2472 12.125 17.625 11.7472 17.625 11.2812C17.625 10.8153 17.2472 10.4375 16.7812 10.4375H16.2188Z" fill="#7B3FE4"/>
<line x1="15.6563" y1="6.78125" x2="15.6562" y2="2.84375" stroke="#7B3FE4" stroke-width="1.6875" stroke-linecap="round" stroke-linejoin="round"/>
<line x1="8.90625" y1="6.78125" x2="8.90625" y2="2.84375" stroke="#7B3FE4" stroke-width="1.6875" stroke-linecap="round" stroke-linejoin="round"/>
</svg>
