<svg width="24" height="24" viewBox="0 0 24 24" fill="none" xmlns="http://www.w3.org/2000/svg">
<path opacity="0.4" fill-rule="evenodd" clip-rule="evenodd" d="M12 2C17.5228 2 22 6.47715 22 12C22 17.5228 17.5228 22 12 22C6.47715 22 2 17.5228 2 12C2 6.47715 6.47715 2 12 2ZM7 7L13.7364 10.2636L17 17L10.2636 13.7364L7 7Z" fill="#7B3FE4"/>
<path opacity="0.2" fill-rule="evenodd" clip-rule="evenodd" d="M7 7L13.7364 10.2636L17 17L10.2636 13.7364L7 7ZM12 13C11.4477 13 11 12.5523 11 12C11 11.4477 11.4477 11 12 11C12.5523 11 13 11.4477 13 12C13 12.5523 12.5523 13 12 13Z" fill="#7B3FE4"/>
<circle cx="12" cy="12" r="1" fill="white"/>
<mask id="path-4-outside-1_114_244" maskUnits="userSpaceOnUse" x="7.14563" y="11" width="8" height="10" fill="black">
<rect fill="white" x="7.14563" y="11" width="8" height="10"/>
<path d="M11.3021 17.9194C11.3101 17.9735 11.3041 18.0288 11.2845 18.0799L10.8829 19.0453C10.8635 19.0967 10.831 19.1421 10.7888 19.1772C10.7465 19.2123 10.6958 19.2358 10.6418 19.2454L9.91574 19.3746L10.0132 18.8231L10.3923 18.7557C10.4098 18.7526 10.4263 18.7451 10.4401 18.7339C10.454 18.7227 10.4648 18.7082 10.4716 18.6917L10.5906 18.4026C10.5977 18.3853 10.6002 18.3665 10.5976 18.348C10.5951 18.3295 10.5878 18.312 10.5763 18.2973C10.5649 18.2826 10.5497 18.2711 10.5324 18.2642C10.5151 18.2572 10.4963 18.2549 10.4778 18.2575L10.1031 18.3131L10.2005 17.7621L10.9411 17.6527C11.0243 17.6402 11.1091 17.6613 11.1768 17.7113C11.2445 17.7613 11.2896 17.8362 11.3021 17.9194ZM12.119 15.9018C12.1253 15.9534 12.119 16.0058 12.1004 16.0543L11.7134 17.0281C11.6933 17.0811 11.6593 17.1277 11.615 17.1632C11.5708 17.1986 11.5178 17.2215 11.4617 17.2295L10.264 17.4019L10.3654 16.8275L11.0284 16.7319C11.0465 16.7292 11.0636 16.7219 11.0781 16.7106C11.0925 16.6993 11.1038 16.6845 11.1108 16.6675L11.2364 16.3629C11.2435 16.3459 11.2459 16.3273 11.2436 16.309C11.2412 16.2907 11.2341 16.2733 11.223 16.2586C11.2118 16.2439 11.1971 16.2324 11.1801 16.2251C11.1631 16.2179 11.1445 16.2153 11.1262 16.2174L10.4584 16.3003L10.551 15.7775L11.765 15.6263C11.8484 15.6159 11.9326 15.6391 11.999 15.6908C12.0653 15.7425 12.1085 15.8184 12.119 15.9018ZM13.1513 13.3913C13.1562 13.4537 13.1471 13.5163 13.1249 13.5747L12.5805 14.9413C12.5532 15.0127 12.5071 15.0755 12.447 15.1228C12.387 15.1702 12.3152 15.2004 12.2393 15.2102L10.6144 15.4182L10.6744 15.0806C10.6991 14.9408 10.6911 14.8028 10.6563 14.6741L11.739 14.5242C11.775 14.5192 11.809 14.5049 11.8379 14.4828C11.8668 14.4607 11.8895 14.4316 11.9038 14.3982L12.0744 13.9992C12.084 13.9769 12.0876 13.9524 12.085 13.9283C12.0823 13.9041 12.0735 13.881 12.0593 13.8613C12.0451 13.8416 12.0261 13.8258 12.004 13.8156C11.9819 13.8054 11.9576 13.8011 11.9334 13.8031L9.75484 13.9834L9.75352 13.9878H9.14563L9.22939 13.5879C9.24561 13.4955 9.29209 13.4111 9.36151 13.348C9.43093 13.2849 9.51936 13.2466 9.6129 13.2393L12.6973 13.0012C12.7527 12.997 12.8085 13.0038 12.8613 13.0211C12.9141 13.0384 12.963 13.066 13.0052 13.1022C13.0473 13.1384 13.0819 13.1826 13.107 13.2322C13.1321 13.2818 13.1472 13.3359 13.1513 13.3913Z"/>
</mask>
<path d="M11.3021 17.9194C11.3101 17.9735 11.3041 18.0288 11.2845 18.0799L10.8829 19.0453C10.8635 19.0967 10.831 19.1421 10.7888 19.1772C10.7465 19.2123 10.6958 19.2358 10.6418 19.2454L9.91574 19.3746L10.0132 18.8231L10.3923 18.7557C10.4098 18.7526 10.4263 18.7451 10.4401 18.7339C10.454 18.7227 10.4648 18.7082 10.4716 18.6917L10.5906 18.4026C10.5977 18.3853 10.6002 18.3665 10.5976 18.348C10.5951 18.3295 10.5878 18.312 10.5763 18.2973C10.5649 18.2826 10.5497 18.2711 10.5324 18.2642C10.5151 18.2572 10.4963 18.2549 10.4778 18.2575L10.1031 18.3131L10.2005 17.7621L10.9411 17.6527C11.0243 17.6402 11.1091 17.6613 11.1768 17.7113C11.2445 17.7613 11.2896 17.8362 11.3021 17.9194ZM12.119 15.9018C12.1253 15.9534 12.119 16.0058 12.1004 16.0543L11.7134 17.0281C11.6933 17.0811 11.6593 17.1277 11.615 17.1632C11.5708 17.1986 11.5178 17.2215 11.4617 17.2295L10.264 17.4019L10.3654 16.8275L11.0284 16.7319C11.0465 16.7292 11.0636 16.7219 11.0781 16.7106C11.0925 16.6993 11.1038 16.6845 11.1108 16.6675L11.2364 16.3629C11.2435 16.3459 11.2459 16.3273 11.2436 16.309C11.2412 16.2907 11.2341 16.2733 11.223 16.2586C11.2118 16.2439 11.1971 16.2324 11.1801 16.2251C11.1631 16.2179 11.1445 16.2153 11.1262 16.2174L10.4584 16.3003L10.551 15.7775L11.765 15.6263C11.8484 15.6159 11.9326 15.6391 11.999 15.6908C12.0653 15.7425 12.1085 15.8184 12.119 15.9018ZM13.1513 13.3913C13.1562 13.4537 13.1471 13.5163 13.1249 13.5747L12.5805 14.9413C12.5532 15.0127 12.5071 15.0755 12.447 15.1228C12.387 15.1702 12.3152 15.2004 12.2393 15.2102L10.6144 15.4182L10.6744 15.0806C10.6991 14.9408 10.6911 14.8028 10.6563 14.6741L11.739 14.5242C11.775 14.5192 11.809 14.5049 11.8379 14.4828C11.8668 14.4607 11.8895 14.4316 11.9038 14.3982L12.0744 13.9992C12.084 13.9769 12.0876 13.9524 12.085 13.9283C12.0823 13.9041 12.0735 13.881 12.0593 13.8613C12.0451 13.8416 12.0261 13.8258 12.004 13.8156C11.9819 13.8054 11.9576 13.8011 11.9334 13.8031L9.75484 13.9834L9.75352 13.9878H9.14563L9.22939 13.5879C9.24561 13.4955 9.29209 13.4111 9.36151 13.348C9.43093 13.2849 9.51936 13.2466 9.6129 13.2393L12.6973 13.0012C12.7527 12.997 12.8085 13.0038 12.8613 13.0211C12.9141 13.0384 12.963 13.066 13.0052 13.1022C13.0473 13.1384 13.0819 13.1826 13.107 13.2322C13.1321 13.2818 13.1472 13.3359 13.1513 13.3913Z" fill="#FFC55A"/>
<path d="M11.3021 17.9194L12.4119 17.7548L12.4116 17.7527L11.3021 17.9194ZM11.2845 18.0799L12.3203 18.5108L12.3264 18.4963L12.332 18.4816L11.2845 18.0799ZM10.8829 19.0453L9.84705 18.6144L9.84005 18.6312L9.83361 18.6482L10.8829 19.0453ZM10.6418 19.2454L10.8383 20.35L10.8387 20.3499L10.6418 19.2454ZM9.91574 19.3746L8.81095 19.1794L8.53167 20.7603L10.1122 20.4791L9.91574 19.3746ZM10.0132 18.8231L9.81665 17.7186L9.04476 17.8559L8.90837 18.6279L10.0132 18.8231ZM10.3923 18.7557L10.1961 17.651L10.1958 17.6511L10.3923 18.7557ZM10.4716 18.6917L9.43415 18.2647L9.43407 18.2649L10.4716 18.6917ZM10.5906 18.4026L9.55335 17.9751L9.55317 17.9756L10.5906 18.4026ZM10.4778 18.2575L10.3184 17.147L10.3133 17.1478L10.4778 18.2575ZM10.1031 18.3131L8.99832 18.1178L8.72721 19.6512L10.2676 19.4229L10.1031 18.3131ZM10.2005 17.7621L10.0367 16.6522L9.23656 16.7703L9.09575 17.5667L10.2005 17.7621ZM10.9411 17.6527L11.1049 18.7626L11.1078 18.7622L10.9411 17.6527ZM12.119 15.9018L13.2323 15.7638L13.2321 15.7623L12.119 15.9018ZM12.1004 16.0543L13.143 16.4687L13.1458 16.4617L13.1485 16.4547L12.1004 16.0543ZM11.7134 17.0281L10.6708 16.6137L10.6677 16.6216L10.6647 16.6296L11.7134 17.0281ZM11.4617 17.2295L11.3027 16.119L11.3019 16.1191L11.4617 17.2295ZM10.264 17.4019L9.15917 17.2069L8.88976 18.7331L10.4238 18.5124L10.264 17.4019ZM10.3654 16.8275L10.2052 15.7171L9.40167 15.8331L9.26056 16.6325L10.3654 16.8275ZM11.0284 16.7319L11.1886 17.8423L11.1915 17.8418L11.0284 16.7319ZM11.1108 16.6675L10.0737 16.2397L10.0735 16.24L11.1108 16.6675ZM11.2364 16.3629L10.1996 15.9344L10.1993 15.9351L11.2364 16.3629ZM11.1262 16.2174L10.9944 15.1033L10.9881 15.1041L11.1262 16.2174ZM10.4584 16.3003L9.35367 16.1047L9.08877 17.6008L10.5965 17.4137L10.4584 16.3003ZM10.551 15.7775L10.4123 14.6642L9.59062 14.7665L9.44625 15.5819L10.551 15.7775ZM11.765 15.6263L11.6269 14.5129L11.6263 14.513L11.765 15.6263ZM13.1513 13.3913L12.0326 13.4758L12.0328 13.4776L13.1513 13.3913ZM13.1249 13.5747L14.1671 13.9899L14.1704 13.9818L14.1735 13.9736L13.1249 13.5747ZM12.5805 14.9413L11.5383 14.526L11.5352 14.5337L11.5322 14.5415L12.5805 14.9413ZM12.2393 15.2102L12.3818 16.323L12.383 16.3228L12.2393 15.2102ZM10.6144 15.4182L9.50982 15.2221L9.243 16.7249L10.7569 16.531L10.6144 15.4182ZM10.6744 15.0806L11.779 15.2767L11.7792 15.2757L10.6744 15.0806ZM10.6563 14.6741L10.5025 13.5628L9.24068 13.7375L9.57335 14.9671L10.6563 14.6741ZM11.739 14.5242L11.8928 15.6355L11.8958 15.6351L11.739 14.5242ZM11.9038 14.3982L12.9348 14.8406L12.9354 14.8393L11.9038 14.3982ZM12.0744 13.9992L11.0432 13.5573L11.0429 13.5581L12.0744 13.9992ZM11.9334 13.8031L11.8427 12.6848L11.8408 12.685L11.9334 13.8031ZM9.75484 13.9834L9.66231 12.8653L8.90008 12.9284L8.68027 13.6609L9.75484 13.9834ZM9.75352 13.9878V15.1097H10.5882L10.8281 14.3102L9.75352 13.9878ZM9.14563 13.9878L8.04757 13.7577L7.76436 15.1097H9.14563V13.9878ZM9.22939 13.5879L10.3274 13.818L10.3312 13.8L10.3344 13.782L9.22939 13.5879ZM9.6129 13.2393L9.52657 12.1207L9.52462 12.1208L9.6129 13.2393ZM12.6973 13.0012L12.6123 11.8825L12.611 11.8826L12.6973 13.0012ZM10.1924 18.0841C10.1721 17.9472 10.1874 17.8074 10.237 17.6782L12.332 18.4816C12.4207 18.2502 12.4482 17.9999 12.4119 17.7548L10.1924 18.0841ZM10.2486 17.649L9.84705 18.6144L11.9187 19.4762L12.3203 18.5108L10.2486 17.649ZM9.83361 18.6482C9.88288 18.518 9.96511 18.4028 10.0722 18.3139L11.5053 20.0405C11.6969 19.8814 11.844 19.6753 11.9322 19.4423L9.83361 18.6482ZM10.0722 18.3139C10.1794 18.225 10.3077 18.1654 10.4448 18.1409L10.8387 20.3499C11.0839 20.3062 11.3136 20.1995 11.5053 20.0405L10.0722 18.3139ZM10.4453 18.1409L9.71924 18.27L10.1122 20.4791L10.8383 20.35L10.4453 18.1409ZM11.0205 19.5697L11.118 19.0183L8.90837 18.6279L8.81095 19.1794L11.0205 19.5697ZM10.2097 19.9277L10.5888 19.8602L10.1958 17.6511L9.81665 17.7186L10.2097 19.9277ZM10.5884 19.8603C10.7919 19.8242 10.983 19.7372 11.1439 19.6076L9.73634 17.8602C9.86956 17.7529 10.0277 17.6809 10.1961 17.651L10.5884 19.8603ZM11.1439 19.6076C11.3049 19.4779 11.4305 19.3097 11.5092 19.1186L9.43407 18.2649C9.49915 18.1067 9.60311 17.9675 9.73634 17.8602L11.1439 19.6076ZM11.5091 19.1187L11.6281 18.8296L9.55317 17.9756L9.43415 18.2647L11.5091 19.1187ZM11.6279 18.83C11.7104 18.6298 11.7385 18.4113 11.7093 18.1968L9.48599 18.4992C9.46183 18.3217 9.48507 18.1409 9.55335 17.9751L11.6279 18.83ZM11.7093 18.1968C11.6801 17.9822 11.5947 17.7792 11.4617 17.6083L9.69089 18.9863C9.58082 18.8448 9.51014 18.6768 9.48599 18.4992L11.7093 18.1968ZM11.4617 17.6083C11.3288 17.4374 11.153 17.3048 10.9522 17.2237L10.1126 19.3046C9.94646 19.2375 9.80095 19.1277 9.69089 18.9863L11.4617 17.6083ZM10.9522 17.2237C10.7514 17.1427 10.5327 17.1163 10.3184 17.147L10.6372 19.3681C10.4598 19.3935 10.2788 19.3716 10.1126 19.3046L10.9522 17.2237ZM10.3133 17.1478L9.93858 17.2033L10.2676 19.4229L10.6423 19.3673L10.3133 17.1478ZM11.2079 18.5084L11.3053 17.9574L9.09575 17.5667L8.99832 18.1178L11.2079 18.5084ZM10.3643 18.8719L11.1049 18.7626L10.7772 16.5429L10.0367 16.6522L10.3643 18.8719ZM11.1078 18.7622C10.8968 18.7939 10.6819 18.7405 10.5102 18.6137L11.8434 16.8089C11.5364 16.5821 11.1518 16.4866 10.7744 16.5433L11.1078 18.7622ZM10.5102 18.6137C10.3386 18.4869 10.2244 18.2972 10.1927 18.0862L12.4116 17.7527C12.3548 17.3752 12.1505 17.0357 11.8434 16.8089L10.5102 18.6137ZM11.0056 16.0398C10.9894 15.9093 11.0055 15.7768 11.0524 15.654L13.1485 16.4547C13.2325 16.2347 13.2613 15.9975 13.2323 15.7638L11.0056 16.0398ZM11.0579 15.6399L10.6708 16.6137L12.756 17.4425L13.143 16.4687L11.0579 15.6399ZM10.6647 16.6296C10.7157 16.4953 10.8018 16.3771 10.914 16.2873L12.3161 18.0391C12.5168 17.8784 12.6708 17.6669 12.7621 17.4266L10.6647 16.6296ZM10.914 16.2873C11.0262 16.1975 11.1604 16.1393 11.3027 16.119L11.6207 18.3401C11.8752 18.3037 12.1153 18.1997 12.3161 18.0391L10.914 16.2873ZM11.3019 16.1191L10.1042 16.2915L10.4238 18.5124L11.6215 18.34L11.3019 16.1191ZM11.3688 17.5969L11.4702 17.0225L9.26056 16.6325L9.15917 17.2069L11.3688 17.5969ZM10.5256 17.9379L11.1886 17.8423L10.8682 15.6215L10.2052 15.7171L10.5256 17.9379ZM11.1915 17.8418C11.402 17.8109 11.6008 17.7258 11.7685 17.5949L10.3877 15.8263C10.5265 15.7179 10.691 15.6475 10.8653 15.6219L11.1915 17.8418ZM11.7685 17.5949C11.9362 17.464 12.067 17.2917 12.1481 17.095L10.0735 16.24C10.1406 16.0772 10.2489 15.9346 10.3877 15.8263L11.7685 17.5949ZM12.1479 17.0953L12.2736 16.7907L10.1993 15.9351L10.0737 16.2397L12.1479 17.0953ZM12.2733 16.7914C12.355 16.5935 12.3836 16.3778 12.3563 16.1655L10.1309 16.4524C10.1082 16.2767 10.1319 16.0982 10.1996 15.9344L12.2733 16.7914ZM12.3563 16.1655C12.3289 15.9532 12.2465 15.7518 12.1172 15.5811L10.3287 16.9361C10.2217 16.7948 10.1535 16.6281 10.1309 16.4524L12.3563 16.1655ZM12.1172 15.5811C11.988 15.4105 11.8164 15.2767 11.6194 15.1928L10.7408 17.2574C10.5778 17.1881 10.4357 17.0773 10.3287 16.9361L12.1172 15.5811ZM11.6194 15.1928C11.4225 15.109 11.207 15.0782 10.9944 15.1033L11.258 17.3316C11.0821 17.3524 10.9038 17.3268 10.7408 17.2574L11.6194 15.1928ZM10.9881 15.1041L10.3202 15.1869L10.5965 17.4137L11.2644 17.3308L10.9881 15.1041ZM11.5631 16.4959L11.6557 15.9731L9.44625 15.5819L9.35367 16.1047L11.5631 16.4959ZM10.6896 16.8908L11.9036 16.7396L11.6263 14.513L10.4123 14.6642L10.6896 16.8908ZM11.903 16.7397C11.6914 16.7659 11.4781 16.7071 11.3099 16.5761L12.6881 14.8055C12.3871 14.5712 12.0054 14.466 11.6269 14.5129L11.903 16.7397ZM11.3099 16.5761C11.1417 16.4452 11.0323 16.2528 11.0058 16.0413L13.2321 15.7623C13.1847 15.3839 12.989 15.0397 12.6881 14.8055L11.3099 16.5761ZM12.0328 13.4776C12.0249 13.3751 12.0397 13.272 12.0763 13.1759L14.1735 13.9736C14.2545 13.7606 14.2874 13.5323 14.2699 13.3051L12.0328 13.4776ZM12.0827 13.1595L11.5383 14.526L13.6227 15.3565L14.1671 13.9899L12.0827 13.1595ZM11.5322 14.5415C11.5772 14.4235 11.6534 14.3199 11.7526 14.2417L13.1415 16.004C13.3608 15.8311 13.5292 15.602 13.6287 15.341L11.5322 14.5415ZM11.7526 14.2417C11.8518 14.1635 11.9703 14.1137 12.0956 14.0975L12.383 16.3228C12.66 16.287 12.9221 16.1768 13.1415 16.004L11.7526 14.2417ZM12.0968 14.0973L10.4719 14.3054L10.7569 16.531L12.3818 16.323L12.0968 14.0973ZM11.7191 15.6143L11.779 15.2767L9.56977 14.8844L9.50982 15.2221L11.7191 15.6143ZM11.7792 15.2757C11.8334 14.9691 11.8159 14.6644 11.7393 14.3811L9.57335 14.9671C9.56635 14.9412 9.5648 14.9126 9.5696 14.8854L11.7792 15.2757ZM10.8102 15.7854L11.8928 15.6355L11.5851 13.4129L10.5025 13.5628L10.8102 15.7854ZM11.8958 15.6351C12.1226 15.6031 12.3374 15.5132 12.5194 15.374L11.1564 13.5916C11.2807 13.4966 11.4273 13.4352 11.5821 13.4134L11.8958 15.6351ZM12.5194 15.374C12.7014 15.2348 12.8445 15.0511 12.9348 14.8406L10.8729 13.9558C10.9345 13.812 11.0322 13.6866 11.1564 13.5916L12.5194 15.374ZM12.9354 14.8393L13.106 14.4403L11.0429 13.5581L10.8723 13.9571L12.9354 14.8393ZM13.1056 14.4411C13.1914 14.2411 13.2239 14.0223 13.2002 13.8059L10.9698 14.0506C10.9514 13.8826 10.9766 13.7127 11.0432 13.5573L13.1056 14.4411ZM13.2002 13.8059C13.1765 13.5896 13.0972 13.383 12.9701 13.2063L11.1485 14.5163C11.0498 14.3791 10.9882 14.2187 10.9698 14.0506L13.2002 13.8059ZM12.9701 13.2063C12.8431 13.0296 12.6725 12.8887 12.475 12.7974L11.533 14.8339C11.3796 14.7629 11.2471 14.6535 11.1485 14.5163L12.9701 13.2063ZM12.475 12.7974C12.2774 12.706 12.0596 12.6672 11.8427 12.6848L12.0241 14.9213C11.8556 14.935 11.6864 14.9048 11.533 14.8339L12.475 12.7974ZM11.8408 12.685L9.66231 12.8653L9.84737 15.1014L12.0259 14.9211L11.8408 12.685ZM8.68027 13.6609L8.67895 13.6653L10.8281 14.3102L10.8294 14.3058L8.68027 13.6609ZM9.75352 12.8659H9.14563V15.1097H9.75352V12.8659ZM10.2437 14.2178L10.3274 13.818L8.13132 13.3579L8.04757 13.7577L10.2437 14.2178ZM10.3344 13.782C10.3076 13.9345 10.2309 14.0739 10.1162 14.1781L8.60679 12.5179C8.35332 12.7484 8.18364 13.0565 8.12439 13.3939L10.3344 13.782ZM10.1162 14.1781C10.0016 14.2823 9.8556 14.3455 9.70117 14.3577L9.52462 12.1208C9.18312 12.1478 8.86026 12.2875 8.60679 12.5179L10.1162 14.1781ZM9.69922 14.3578L12.7836 14.1198L12.611 11.8826L9.52657 12.1207L9.69922 14.3578ZM12.7823 14.1199C12.6908 14.1268 12.5988 14.1157 12.5116 14.0871L13.211 11.9551C13.0181 11.8918 12.8147 11.8672 12.6123 11.8825L12.7823 14.1199ZM12.5116 14.0871C12.4244 14.0585 12.3436 14.013 12.274 13.9531L13.7363 12.2513C13.5823 12.119 13.4038 12.0184 13.211 11.9551L12.5116 14.0871ZM12.274 13.9531C12.2044 13.8933 12.1472 13.8204 12.1058 13.7385L14.1082 12.726C14.0166 12.5449 13.8902 12.3836 13.7363 12.2513L12.274 13.9531ZM12.1058 13.7385C12.0644 13.6565 12.0395 13.5673 12.0326 13.4758L14.2701 13.3069C14.2548 13.1045 14.1998 12.9071 14.1082 12.726L12.1058 13.7385Z" fill="#7B3FE4" mask="url(#path-4-outside-1_114_244)"/>
<mask id="path-6-outside-2_114_244" maskUnits="userSpaceOnUse" x="0" y="12.444" width="12" height="11" fill="black">
<rect fill="white" y="12.444" width="12" height="11"/>
<path d="M5.46512 14.444H4.71271H3.67496C3.56413 14.444 3.45687 14.4831 3.37199 14.5544C3.28712 14.6256 3.23004 14.7245 3.21077 14.8337L2.00734 21.6478C1.99523 21.7157 1.99813 21.7853 2.01584 21.8519C2.03355 21.9185 2.06564 21.9804 2.10984 22.0333C2.15405 22.0861 2.2093 22.1287 2.27171 22.1579C2.33412 22.1871 2.40217 22.2023 2.47108 22.2024H4.26124C4.37207 22.2023 4.47933 22.1632 4.5642 22.092C4.64908 22.0207 4.70616 21.9218 4.72543 21.8127L5.08822 19.7629C5.09587 19.7193 5.11861 19.6798 5.15246 19.6512C5.1863 19.6227 5.2291 19.607 5.27336 19.6068H6.4239C6.4515 19.6068 6.47877 19.6128 6.50379 19.6245C6.52881 19.6361 6.55098 19.6531 6.56871 19.6742C6.58645 19.6954 6.59934 19.7202 6.60646 19.7468C6.61358 19.7735 6.61476 19.8014 6.60993 19.8286L6.28813 21.6478C6.27602 21.7157 6.27892 21.7853 6.29663 21.8519C6.31434 21.9185 6.34643 21.9804 6.39063 22.0333C6.43484 22.0861 6.49009 22.1287 6.5525 22.1579C6.61491 22.1871 6.68296 22.2023 6.75187 22.2024H8.54203C8.65286 22.2023 8.76012 22.1632 8.845 22.092C8.92987 22.0207 8.98695 21.9218 9.00622 21.8127L10.2097 14.9985C10.2218 14.9307 10.2189 14.861 10.2011 14.7944C10.1834 14.7278 10.1514 14.6659 10.1071 14.6131C10.0629 14.5602 10.0077 14.5177 9.94528 14.4885C9.88287 14.4592 9.81482 14.4441 9.74591 14.444H7.9553C7.84462 14.4441 7.73752 14.4832 7.65274 14.5544C7.56796 14.6255 7.51091 14.7242 7.49156 14.8332L7.13803 16.8178C7.13037 16.8614 7.10764 16.9009 7.07379 16.9294C7.03994 16.9579 6.99715 16.9737 6.95288 16.9738H5.80235C5.77478 16.9738 5.74756 16.9676 5.72261 16.9559C5.69766 16.9442 5.67558 16.9271 5.65793 16.9059C5.64028 16.8848 5.62749 16.86 5.62045 16.8333C5.61342 16.8067 5.61231 16.7788 5.6172 16.7517L5.92886 14.999C5.94105 14.9311 5.93819 14.8613 5.92049 14.7946C5.90279 14.7279 5.87067 14.666 5.82641 14.613C5.78215 14.5601 5.72682 14.5175 5.66432 14.4883C5.60182 14.4591 5.53411 14.444 5.46512 14.444Z"/>
</mask>
<path d="M5.46512 14.444H4.71271H3.67496C3.56413 14.444 3.45687 14.4831 3.37199 14.5544C3.28712 14.6256 3.23004 14.7245 3.21077 14.8337L2.00734 21.6478C1.99523 21.7157 1.99813 21.7853 2.01584 21.8519C2.03355 21.9185 2.06564 21.9804 2.10984 22.0333C2.15405 22.0861 2.2093 22.1287 2.27171 22.1579C2.33412 22.1871 2.40217 22.2023 2.47108 22.2024H4.26124C4.37207 22.2023 4.47933 22.1632 4.5642 22.092C4.64908 22.0207 4.70616 21.9218 4.72543 21.8127L5.08822 19.7629C5.09587 19.7193 5.11861 19.6798 5.15246 19.6512C5.1863 19.6227 5.2291 19.607 5.27336 19.6068H6.4239C6.4515 19.6068 6.47877 19.6128 6.50379 19.6245C6.52881 19.6361 6.55098 19.6531 6.56871 19.6742C6.58645 19.6954 6.59934 19.7202 6.60646 19.7468C6.61358 19.7735 6.61476 19.8014 6.60993 19.8286L6.28813 21.6478C6.27602 21.7157 6.27892 21.7853 6.29663 21.8519C6.31434 21.9185 6.34643 21.9804 6.39063 22.0333C6.43484 22.0861 6.49009 22.1287 6.5525 22.1579C6.61491 22.1871 6.68296 22.2023 6.75187 22.2024H8.54203C8.65286 22.2023 8.76012 22.1632 8.845 22.092C8.92987 22.0207 8.98695 21.9218 9.00622 21.8127L10.2097 14.9985C10.2218 14.9307 10.2189 14.861 10.2011 14.7944C10.1834 14.7278 10.1514 14.6659 10.1071 14.6131C10.0629 14.5602 10.0077 14.5177 9.94528 14.4885C9.88287 14.4592 9.81482 14.4441 9.74591 14.444H7.9553C7.84462 14.4441 7.73752 14.4832 7.65274 14.5544C7.56796 14.6255 7.51091 14.7242 7.49156 14.8332L7.13803 16.8178C7.13037 16.8614 7.10764 16.9009 7.07379 16.9294C7.03994 16.9579 6.99715 16.9737 6.95288 16.9738H5.80235C5.77478 16.9738 5.74756 16.9676 5.72261 16.9559C5.69766 16.9442 5.67558 16.9271 5.65793 16.9059C5.64028 16.8848 5.62749 16.86 5.62045 16.8333C5.61342 16.8067 5.61231 16.7788 5.6172 16.7517L5.92886 14.999C5.94105 14.9311 5.93819 14.8613 5.92049 14.7946C5.90279 14.7279 5.87067 14.666 5.82641 14.613C5.78215 14.5601 5.72682 14.5175 5.66432 14.4883C5.60182 14.4591 5.53411 14.444 5.46512 14.444Z" fill="white"/>
<path d="M5.46512 14.444L5.4653 13.3221H5.46512V14.444ZM3.67496 14.444V13.3221L3.67421 13.3221L3.67496 14.444ZM3.21077 14.8337L4.31557 15.0288L4.31559 15.0287L3.21077 14.8337ZM2.00734 21.6478L3.11178 21.8449L3.11214 21.8429L2.00734 21.6478ZM2.47108 22.2024L2.46966 23.3243H2.47108V22.2024ZM4.26124 22.2024V23.3243H4.26199L4.26124 22.2024ZM4.72543 21.8127L3.6207 21.6172L3.62061 21.6177L4.72543 21.8127ZM5.08822 19.7629L6.19295 19.9584L6.19322 19.9569L5.08822 19.7629ZM5.27336 19.6068V18.4849L5.26929 18.485L5.27336 19.6068ZM6.4239 19.6068V20.7287L6.42553 20.7287L6.4239 19.6068ZM6.60993 19.8286L5.50539 19.632L5.50518 19.6332L6.60993 19.8286ZM6.28813 21.6478L7.39257 21.8449L7.39288 21.8432L6.28813 21.6478ZM6.75187 22.2024L6.75045 23.3243H6.75187V22.2024ZM8.54203 22.2024V23.3243H8.54278L8.54203 22.2024ZM9.00622 21.8127L7.90142 21.6176L7.9014 21.6177L9.00622 21.8127ZM10.2097 14.9985L9.10521 14.8014L9.10485 14.8034L10.2097 14.9985ZM9.74591 14.444L9.74733 13.3221H9.74591V14.444ZM7.9553 14.444V13.3221L7.9537 13.3221L7.9553 14.444ZM7.49156 14.8332L8.59607 15.03L8.59619 15.0293L7.49156 14.8332ZM7.13803 16.8178L6.03351 16.621L6.03302 16.6238L7.13803 16.8178ZM6.95288 16.9738V18.0957L6.95696 18.0957L6.95288 16.9738ZM5.80235 16.9738L5.79921 18.0957H5.80235V16.9738ZM5.6172 16.7517L6.72127 16.9509L6.72177 16.9481L5.6172 16.7517ZM5.92886 14.999L4.8246 14.8008L4.82429 14.8025L5.92886 14.999ZM3.67421 13.3221C3.29979 13.3223 2.93741 13.4544 2.65065 13.6951L4.09334 15.4136C3.97633 15.5119 3.82847 15.5658 3.6757 15.5659L3.67421 13.3221ZM2.65065 13.6951C2.36388 13.9359 2.17104 14.2699 2.10596 14.6386L4.31559 15.0287C4.28903 15.1791 4.21035 15.3154 4.09334 15.4136L2.65065 13.6951ZM2.10597 14.6385L0.902538 21.4527L3.11214 21.8429L4.31557 15.0288L2.10597 14.6385ZM0.902894 21.4507C0.861989 21.6799 0.871797 21.9153 0.93163 22.1403L3.10006 21.5636C3.12447 21.6554 3.12847 21.7514 3.11178 21.8449L0.902894 21.4507ZM0.93163 22.1403C0.991463 22.3652 1.09987 22.5744 1.24921 22.753L2.97047 21.3136C3.03141 21.3865 3.07564 21.4718 3.10006 21.5636L0.93163 22.1403ZM1.24921 22.753C1.39856 22.9316 1.58522 23.0753 1.79608 23.174L2.74734 21.1418C2.83338 21.1821 2.90954 21.2407 2.97047 21.3136L1.24921 22.753ZM1.79608 23.174C2.00694 23.2727 2.23686 23.324 2.46966 23.3243L2.4725 21.0805C2.56748 21.0806 2.66129 21.1015 2.74734 21.1418L1.79608 23.174ZM2.47108 23.3243H4.26124V21.0805H2.47108V23.3243ZM4.26199 23.3243C4.63641 23.324 4.99879 23.1919 5.28555 22.9512L3.84286 21.2327C3.95986 21.1345 4.10772 21.0806 4.2605 21.0805L4.26199 23.3243ZM5.28555 22.9512C5.57231 22.7105 5.76516 22.3764 5.83024 22.0077L3.62061 21.6177C3.64717 21.4672 3.72585 21.3309 3.84286 21.2327L5.28555 22.9512ZM5.83015 22.0082L6.19295 19.9584L3.98349 19.5674L3.6207 21.6172L5.83015 22.0082ZM6.19322 19.9569C6.15537 20.1725 6.04289 20.368 5.87549 20.5091L4.42943 18.7934C4.19433 18.9916 4.03638 19.2661 3.98322 19.5689L6.19322 19.9569ZM5.87549 20.5091C5.70808 20.6502 5.49639 20.7279 5.27744 20.7287L5.26929 18.485C4.96181 18.4861 4.66452 18.5953 4.42943 18.7934L5.87549 20.5091ZM5.27336 20.7287H6.4239V18.4849H5.27336V20.7287ZM6.42553 20.7287C6.28902 20.7289 6.15413 20.6992 6.03036 20.6416L6.97723 18.6074C6.80342 18.5264 6.61398 18.4847 6.42227 18.4849L6.42553 20.7287ZM6.03036 20.6416C5.90658 20.584 5.79697 20.4999 5.70923 20.3953L7.42819 18.9532C7.30498 18.8063 7.15105 18.6883 6.97723 18.6074L6.03036 20.6416ZM5.70923 20.3953C5.62151 20.2908 5.55777 20.1682 5.52254 20.0363L7.69037 19.4574C7.6409 19.2721 7.5514 19.1 7.42819 18.9532L5.70923 20.3953ZM5.52254 20.0363C5.48731 19.9044 5.48147 19.7663 5.50539 19.632L7.71446 20.0252C7.74805 19.8365 7.73984 19.6426 7.69037 19.4574L5.52254 20.0363ZM5.50518 19.6332L5.18338 21.4524L7.39288 21.8432L7.71467 20.024L5.50518 19.6332ZM5.18368 21.4507C5.14278 21.6799 5.15259 21.9153 5.21242 22.1403L7.38085 21.5636C7.40526 21.6554 7.40926 21.7514 7.39257 21.8449L5.18368 21.4507ZM5.21242 22.1403C5.27225 22.3653 5.38066 22.5744 5.53 22.753L7.25126 21.3136C7.3122 21.3865 7.35643 21.4718 7.38085 21.5636L5.21242 22.1403ZM5.53 22.753C5.67935 22.9316 5.86601 23.0753 6.07687 23.174L7.02813 21.1418C7.11417 21.1821 7.19033 21.2407 7.25126 21.3136L5.53 22.753ZM6.07687 23.174C6.28773 23.2727 6.51765 23.324 6.75045 23.3243L6.75329 21.0805C6.84827 21.0806 6.94209 21.1015 7.02813 21.1418L6.07687 23.174ZM6.75187 23.3243H8.54203V21.0805H6.75187V23.3243ZM8.54278 23.3243C8.9172 23.324 9.27958 23.1919 9.56634 22.9512L8.12365 21.2327C8.24066 21.1345 8.38851 21.0806 8.54129 21.0805L8.54278 23.3243ZM9.56634 22.9512C9.8531 22.7105 10.0459 22.3764 10.111 22.0077L7.9014 21.6177C7.92796 21.4672 8.00664 21.3309 8.12365 21.2327L9.56634 22.9512ZM10.111 22.0078L11.3145 15.1936L9.10485 14.8034L7.90142 21.6176L10.111 22.0078ZM11.3141 15.1956C11.355 14.9665 11.3452 14.7311 11.2854 14.5061L9.11693 15.0828C9.09252 14.991 9.08852 14.8949 9.10521 14.8014L11.3141 15.1956ZM11.2854 14.5061C11.2255 14.2811 11.1171 14.072 10.9678 13.8934L9.24652 15.3328C9.18558 15.2599 9.14135 15.1746 9.11693 15.0828L11.2854 14.5061ZM10.9678 13.8934C10.8184 13.7148 10.6318 13.5711 10.4209 13.4724L9.46965 15.5045C9.38361 15.4643 9.30745 15.4056 9.24652 15.3328L10.9678 13.8934ZM10.4209 13.4724C10.2101 13.3737 9.98014 13.3224 9.74733 13.3221L9.74449 15.5659C9.6495 15.5657 9.55569 15.5448 9.46965 15.5045L10.4209 13.4724ZM9.74591 13.3221H7.9553V15.5659H9.74591V13.3221ZM7.9537 13.3221C7.57975 13.3226 7.2179 13.4546 6.93147 13.6951L8.37401 15.4137C8.25714 15.5118 8.10949 15.5656 7.95691 15.5659L7.9537 13.3221ZM6.93147 13.6951C6.64504 13.9355 6.45229 14.2689 6.38693 14.6371L8.59619 15.0293C8.56953 15.1795 8.49088 15.3156 8.37401 15.4137L6.93147 13.6951ZM6.38705 14.6365L6.03352 16.621L8.24253 17.0145L8.59607 15.03L6.38705 14.6365ZM6.03302 16.6238C6.07088 16.4082 6.18335 16.2127 6.35076 16.0716L7.79682 17.7873C8.03193 17.5891 8.18987 17.3146 8.24303 17.0117L6.03302 16.6238ZM6.35076 16.0716C6.51817 15.9305 6.72986 15.8527 6.94881 15.8519L6.95696 18.0957C7.26443 18.0946 7.56172 17.9854 7.79682 17.7873L6.35076 16.0716ZM6.95288 15.8519H5.80235V18.0957H6.95288V15.8519ZM5.80549 15.8519C5.94186 15.8523 6.07648 15.8826 6.19989 15.9406L5.24533 17.9712C5.41863 18.0527 5.60769 18.0952 5.79921 18.0957L5.80549 15.8519ZM6.19989 15.9406C6.32332 15.9986 6.43251 16.083 6.5198 16.1877L4.79607 17.6242C4.91865 17.7713 5.072 17.8897 5.24533 17.9712L6.19989 15.9406ZM6.5198 16.1877C6.60709 16.2925 6.67037 16.4151 6.70519 16.547L4.53572 17.1197C4.58461 17.3049 4.67348 17.4771 4.79607 17.6242L6.5198 16.1877ZM6.70519 16.547C6.74 16.6788 6.74548 16.8167 6.72127 16.9509L4.51314 16.5524C4.47913 16.7409 4.48684 16.9345 4.53572 17.1197L6.70519 16.547ZM6.72177 16.9481L7.03343 15.1954L4.82429 14.8025L4.51263 16.5552L6.72177 16.9481ZM7.03312 15.1971C7.07429 14.9677 7.06463 14.732 7.00483 14.5068L4.83615 15.0825C4.81175 14.9906 4.80781 14.8944 4.8246 14.8008L7.03312 15.1971ZM7.00483 14.5068C6.94502 14.2815 6.83652 14.0721 6.68699 13.8933L4.96584 15.3328C4.90482 15.2599 4.86055 15.1744 4.83615 15.0825L7.00483 14.5068ZM6.68699 13.8933C6.53745 13.7145 6.35051 13.5707 6.13935 13.472L5.18929 15.5047C5.10313 15.4644 5.02685 15.4058 4.96584 15.3328L6.68699 13.8933ZM6.13935 13.472C5.92916 13.3737 5.69946 13.3221 5.4653 13.3221L5.46494 15.5659C5.36876 15.5659 5.27447 15.5445 5.18929 15.5047L6.13935 13.472ZM5.46512 13.3221H4.71271V15.5659H5.46512V13.3221ZM4.71271 13.3221H3.67496V15.5659H4.71271V13.3221Z" fill="#7B3FE4" mask="url(#path-6-outside-2_114_244)"/>
<path d="M11.3021 17.9194C11.3101 17.9735 11.3041 18.0288 11.2845 18.0799L10.8829 19.0453C10.8635 19.0967 10.831 19.1421 10.7888 19.1772C10.7465 19.2123 10.6958 19.2358 10.6418 19.2454L9.91574 19.3746L10.0132 18.8231L10.3923 18.7557C10.4098 18.7526 10.4263 18.7451 10.4401 18.7339C10.454 18.7227 10.4648 18.7082 10.4716 18.6917L10.5906 18.4026C10.5977 18.3853 10.6002 18.3665 10.5976 18.348C10.5951 18.3295 10.5878 18.312 10.5763 18.2973C10.5649 18.2826 10.5497 18.2711 10.5324 18.2642C10.5151 18.2572 10.4963 18.2549 10.4778 18.2575L10.1031 18.3131L10.2005 17.7621L10.9411 17.6527C11.0243 17.6402 11.1091 17.6613 11.1768 17.7113C11.2445 17.7613 11.2896 17.8362 11.3021 17.9194ZM12.119 15.9018C12.1253 15.9534 12.119 16.0058 12.1004 16.0543L11.7134 17.0281C11.6933 17.0811 11.6593 17.1277 11.615 17.1632C11.5708 17.1986 11.5178 17.2215 11.4617 17.2295L10.264 17.4019L10.3654 16.8275L11.0284 16.7319C11.0465 16.7292 11.0636 16.7219 11.0781 16.7106C11.0925 16.6993 11.1038 16.6845 11.1108 16.6675L11.2364 16.3629C11.2435 16.3459 11.2459 16.3273 11.2436 16.309C11.2412 16.2907 11.2341 16.2733 11.223 16.2586C11.2118 16.2439 11.1971 16.2324 11.1801 16.2251C11.1631 16.2179 11.1445 16.2153 11.1262 16.2174L10.4584 16.3003L10.551 15.7775L11.765 15.6263C11.8484 15.6159 11.9326 15.6391 11.999 15.6908C12.0653 15.7425 12.1085 15.8184 12.119 15.9018ZM13.1513 13.3913C13.1562 13.4537 13.1471 13.5163 13.1249 13.5747L12.5805 14.9413C12.5532 15.0127 12.5071 15.0755 12.447 15.1228C12.387 15.1702 12.3152 15.2004 12.2393 15.2102L10.6144 15.4182L10.6744 15.0806C10.6991 14.9408 10.6911 14.8028 10.6563 14.6741L11.739 14.5242C11.775 14.5192 11.809 14.5049 11.8379 14.4828C11.8668 14.4607 11.8895 14.4316 11.9038 14.3982L12.0744 13.9992C12.084 13.9769 12.0876 13.9524 12.085 13.9283C12.0823 13.9041 12.0735 13.881 12.0593 13.8613C12.0451 13.8416 12.0261 13.8258 12.004 13.8156C11.9819 13.8054 11.9576 13.8011 11.9334 13.8031L9.75484 13.9834L9.75352 13.9878H9.14563L9.22939 13.5879C9.24561 13.4955 9.29209 13.4111 9.36151 13.348C9.43093 13.2849 9.51936 13.2466 9.6129 13.2393L12.6973 13.0012C12.7527 12.997 12.8085 13.0038 12.8613 13.0211C12.9141 13.0384 12.963 13.066 13.0052 13.1022C13.0473 13.1384 13.0819 13.1826 13.107 13.2322C13.1321 13.2818 13.1472 13.3359 13.1513 13.3913Z" fill="#FFC55A"/>
<path d="M5.46512 14.444H3.67496C3.56413 14.444 3.45687 14.4831 3.37199 14.5544C3.28712 14.6256 3.23004 14.7245 3.21077 14.8337L2.00734 21.6478C1.99523 21.7157 1.99813 21.7853 2.01584 21.8519C2.03355 21.9185 2.06564 21.9804 2.10984 22.0333C2.15405 22.0861 2.2093 22.1287 2.27171 22.1579C2.33412 22.1871 2.40217 22.2023 2.47108 22.2024H4.26124C4.37207 22.2023 4.47933 22.1632 4.5642 22.092C4.64908 22.0207 4.70616 21.9218 4.72543 21.8127L5.08822 19.7629C5.09587 19.7193 5.11861 19.6798 5.15246 19.6512C5.1863 19.6227 5.2291 19.607 5.27336 19.6068H6.4239C6.4515 19.6068 6.47877 19.6128 6.50379 19.6245C6.52881 19.6361 6.55098 19.6531 6.56871 19.6742C6.58645 19.6954 6.59934 19.7202 6.60646 19.7468C6.61358 19.7735 6.61476 19.8014 6.60993 19.8286L6.28813 21.6478C6.27602 21.7157 6.27892 21.7853 6.29663 21.8519C6.31434 21.9185 6.34643 21.9804 6.39063 22.0333C6.43484 22.0861 6.49009 22.1287 6.5525 22.1579C6.61491 22.1871 6.68296 22.2023 6.75187 22.2024H8.54203C8.65286 22.2023 8.76012 22.1632 8.845 22.092C8.92987 22.0207 8.98695 21.9218 9.00622 21.8127L10.2097 14.9985C10.2218 14.9307 10.2189 14.861 10.2011 14.7944C10.1834 14.7278 10.1514 14.6659 10.1071 14.6131C10.0629 14.5602 10.0077 14.5177 9.94528 14.4885C9.88287 14.4592 9.81482 14.4441 9.74591 14.444H7.9553C7.84462 14.4441 7.73752 14.4832 7.65274 14.5544C7.56796 14.6255 7.51091 14.7242 7.49156 14.8332L7.13803 16.8178C7.13037 16.8614 7.10764 16.9009 7.07379 16.9294C7.03995 16.9579 6.99715 16.9737 6.95288 16.9738H5.80235C5.77478 16.9738 5.74756 16.9676 5.72261 16.9559C5.69766 16.9442 5.67558 16.9271 5.65793 16.9059C5.64028 16.8848 5.62749 16.86 5.62045 16.8333C5.61342 16.8067 5.61231 16.7788 5.6172 16.7517L5.92886 14.999C5.94105 14.9311 5.93819 14.8613 5.92049 14.7946C5.90279 14.7279 5.87067 14.666 5.82641 14.613C5.78215 14.5601 5.72682 14.5175 5.66432 14.4883C5.60182 14.4591 5.53367 14.444 5.46468 14.444H5.46512Z" fill="white"/>
</svg>
