<svg width="24" height="24" viewBox="0 0 24 24" fill="none" xmlns="http://www.w3.org/2000/svg">
<mask id="mask0_25_833" style="mask-type:alpha" maskUnits="userSpaceOnUse" x="3" y="3" width="18" height="18">
<path d="M18.3 7.05C18.3 7.79558 17.6956 8.4 16.95 8.4C16.2044 8.4 15.6 7.79558 15.6 7.05C15.6 6.30442 16.2044 5.7 16.95 5.7C17.6956 5.7 18.3 6.30442 18.3 7.05Z" fill="white"/>
<path fill-rule="evenodd" clip-rule="evenodd" d="M12 16.5C14.4853 16.5 16.5 14.4853 16.5 12C16.5 9.51472 14.4853 7.5 12 7.5C9.51472 7.5 7.5 9.51472 7.5 12C7.5 14.4853 9.51472 16.5 12 16.5ZM12 14.7C13.4912 14.7 14.7 13.4912 14.7 12C14.7 10.5088 13.4912 9.3 12 9.3C10.5088 9.3 9.3 10.5088 9.3 12C9.3 13.4912 10.5088 14.7 12 14.7Z" fill="white"/>
<path fill-rule="evenodd" clip-rule="evenodd" d="M3 11.64C3 8.61572 3 7.10357 3.58856 5.94845C4.10628 4.93238 4.93238 4.10628 5.94845 3.58856C7.10357 3 8.61572 3 11.64 3H12.36C15.3843 3 16.8964 3 18.0515 3.58856C19.0676 4.10628 19.8937 4.93238 20.4114 5.94845C21 7.10357 21 8.61572 21 11.64V12.36C21 15.3843 21 16.8964 20.4114 18.0515C19.8937 19.0676 19.0676 19.8937 18.0515 20.4114C16.8964 21 15.3843 21 12.36 21H11.64C8.61572 21 7.10357 21 5.94845 20.4114C4.93238 19.8937 4.10628 19.0676 3.58856 18.0515C3 16.8964 3 15.3843 3 12.36V11.64ZM11.64 4.8H12.36C13.9018 4.8 14.95 4.8014 15.7601 4.86759C16.5493 4.93207 16.9528 5.04894 17.2344 5.19238C17.9117 5.53752 18.4625 6.08825 18.8076 6.76563C18.9511 7.04715 19.0679 7.45072 19.1324 8.23987C19.1986 9.05003 19.2 10.0982 19.2 11.64V12.36C19.2 13.9018 19.1986 14.95 19.1324 15.7601C19.0679 16.5493 18.9511 16.9528 18.8076 17.2344C18.4625 17.9117 17.9117 18.4625 17.2344 18.8076C16.9528 18.9511 16.5493 19.0679 15.7601 19.1324C14.95 19.1986 13.9018 19.2 12.36 19.2H11.64C10.0982 19.2 9.05003 19.1986 8.23987 19.1324C7.45072 19.0679 7.04715 18.9511 6.76563 18.8076C6.08825 18.4625 5.53752 17.9117 5.19238 17.2344C5.04894 16.9528 4.93207 16.5493 4.86759 15.7601C4.8014 14.95 4.8 13.9018 4.8 12.36V11.64C4.8 10.0982 4.8014 9.05003 4.86759 8.23987C4.93207 7.45072 5.04894 7.04715 5.19238 6.76563C5.53752 6.08825 6.08825 5.53752 6.76563 5.19238C7.04715 5.04894 7.45072 4.93207 8.23987 4.86759C9.05003 4.8014 10.0982 4.8 11.64 4.8Z" fill="white"/>
</mask>
<g mask="url(#mask0_25_833)">
<rect x="0.929688" y="0.928711" width="22.1538" height="22.1538" rx="11.0769" fill="url(#paint0_radial_25_833)"/>
<rect x="0.929688" y="0.928711" width="22.1538" height="22.1538" rx="11.0769" fill="url(#paint1_radial_25_833)"/>
<rect x="0.929688" y="0.928711" width="22.1538" height="22.1538" rx="11.0769" fill="url(#paint2_radial_25_833)"/>
</g>
<defs>
<radialGradient id="paint0_radial_25_833" cx="0" cy="0" r="1" gradientUnits="userSpaceOnUse" gradientTransform="translate(8.84177 17.5441) rotate(-55.3758) scale(20.1913)">
<stop stop-color="#B13589"/>
<stop offset="0.79309" stop-color="#C62F94"/>
<stop offset="1" stop-color="#8A3AC8"/>
</radialGradient>
<radialGradient id="paint1_radial_25_833" cx="0" cy="0" r="1" gradientUnits="userSpaceOnUse" gradientTransform="translate(8.05057 23.8738) rotate(-65.1363) scale(17.8768)">
<stop stop-color="#E0E8B7"/>
<stop offset="0.444662" stop-color="#FB8A2E"/>
<stop offset="0.71474" stop-color="#E2425C"/>
<stop offset="1" stop-color="#E2425C" stop-opacity="0"/>
</radialGradient>
<radialGradient id="paint2_radial_25_833" cx="0" cy="0" r="1" gradientUnits="userSpaceOnUse" gradientTransform="translate(-0.257124 1.71992) rotate(-8.1301) scale(30.7708 6.58156)">
<stop offset="0.156701" stop-color="#406ADC"/>
<stop offset="0.467799" stop-color="#6A45BE"/>
<stop offset="1" stop-color="#6A45BE" stop-opacity="0"/>
</radialGradient>
</defs>
</svg>
