<svg width="24" height="24" viewBox="0 0 24 24" fill="none" xmlns="http://www.w3.org/2000/svg">
<circle cx="12" cy="12" r="12" fill="#FEEEDF"/>
<path d="M18.6755 6L12.6682 10.064L13.7853 7.66895L18.6755 6Z" fill="#E17726"/>
<path d="M5.3385 6.005L10.2156 7.66945L11.2764 10.0959L5.3385 6.005Z" fill="#E27625"/>
<path d="M16.258 14.6429L18.9131 14.6891L17.9852 17.5712L14.7454 16.7556L16.258 14.6429Z" fill="#E27625"/>
<path d="M7.742 14.6429L9.24897 16.7556L6.01459 17.5712L5.09229 14.6891L7.742 14.6429Z" fill="#E27625"/>
<path d="M11.1321 9.4776L11.2407 12.6817L7.9939 12.5467L8.9174 11.2728L8.92911 11.2605L11.1321 9.4776Z" fill="#E27625"/>
<path d="M12.8342 9.44189L15.0709 11.2607L15.0825 11.2729L16.006 12.5468L12.7599 12.6818L12.8342 9.44189Z" fill="#E27625"/>
<path d="M9.34406 14.6522L11.1169 15.9152L9.0575 16.8242L9.34406 14.6522Z" fill="#E27625"/>
<path d="M14.6562 14.652L14.9369 16.8242L12.8832 15.915L14.6562 14.652Z" fill="#E27625"/>
<path d="M12.9285 15.7961L15.0124 16.7187L13.0739 17.561L13.0941 17.0043L12.9285 15.7961Z" fill="#D5BFB2"/>
<path d="M11.0709 15.7966L10.9118 16.9953L10.9249 17.5604L8.98181 16.7188L11.0709 15.7966Z" fill="#D5BFB2"/>
<path d="M10.4692 13.1L11.0137 14.1464L9.15967 13.6498L10.4692 13.1Z" fill="#233447"/>
<path d="M13.5308 13.1L14.8465 13.6497L12.9863 14.1462L13.5308 13.1Z" fill="#233447"/>
<path d="M9.48574 14.6415L9.18605 16.8935L7.57971 14.6907L9.48574 14.6415Z" fill="#CC6228"/>
<path d="M14.5143 14.6415L16.4204 14.6907L14.808 16.8936L14.5143 14.6415Z" fill="#CC6228"/>
<path d="M16.053 12.4194L14.6659 13.7119L13.5964 13.2651L13.0843 14.2493L12.7487 12.5568L16.053 12.4194Z" fill="#CC6228"/>
<path d="M7.94629 12.4194L11.2513 12.5569L10.9156 14.2493L10.4035 13.2652L9.33962 13.712L7.94629 12.4194Z" fill="#CC6228"/>
<path d="M7.85278 12.1541L9.4222 13.6102L9.47656 15.0477L7.85278 12.1541Z" fill="#E27525"/>
<path d="M16.1487 12.1515L14.522 15.0501L14.5832 13.6101L16.1487 12.1515Z" fill="#E27525"/>
<path d="M11.1747 12.2429L11.2378 12.6064L11.3939 13.5119L11.2935 16.2932L10.8191 14.0589L10.819 14.0358L11.1747 12.2429Z" fill="#E27525"/>
<path d="M12.8246 12.2378L13.1812 14.0358L13.1811 14.0589L12.7055 16.2987L12.6866 15.7385L12.6124 13.4954L12.8246 12.2378Z" fill="#E27525"/>
<path d="M14.7228 13.5524L14.6698 14.8013L13.0141 15.9806L12.6794 15.7644L13.0546 13.9977L14.7228 13.5524Z" fill="#F5841F"/>
<path d="M9.28296 13.5524L10.9455 13.9977L11.3206 15.7644L10.9859 15.9806L9.33021 14.8011L9.28296 13.5524Z" fill="#F5841F"/>
<path d="M8.66504 16.4429L10.7832 17.3605L10.7742 16.9687L10.9514 16.8264H13.0479L13.2315 16.9682L13.2179 17.3597L15.3227 16.4452L14.2985 17.219L13.0601 17.9967H10.9345L9.69688 17.2158L8.66504 16.4429Z" fill="#C0AC9D"/>
<path d="M12.7767 15.674L13.0762 15.8674L13.2517 17.1476L12.9977 16.9516H11.0029L10.7538 17.1516L10.9235 15.8675L11.2231 15.674H12.7767Z" fill="#161616"/>
<path d="M18.2789 6.11249L19 8.09034L18.5496 10.0902L18.8703 10.3163L18.4364 10.619L18.7625 10.8493L18.3307 11.2089L18.5958 11.3844L17.8922 12.1357L15.0063 11.3675L14.9813 11.3552L12.9017 9.75134L18.2789 6.11249Z" fill="#763E1A"/>
<path d="M5.72111 6.11249L11.0983 9.75134L9.01866 11.3552L8.99366 11.3675L6.1078 12.1357L5.40414 11.3844L5.66905 11.209L5.23745 10.8493L5.56295 10.6193L5.1225 10.3157L5.45527 10.0894L5 8.09044L5.72111 6.11249Z" fill="#763E1A"/>
<path d="M14.8652 11.1995L17.923 12.0135L18.9164 14.8127H16.2955L14.4897 14.8335L15.803 12.4931L14.8652 11.1995Z" fill="#F5841F"/>
<path d="M9.13485 11.1995L8.19691 12.4931L9.51033 14.8335L7.70537 14.8127H5.08923L6.07705 12.0135L9.13485 11.1995Z" fill="#F5841F"/>
<path d="M13.9351 7.65557L13.0798 9.76752L12.8984 12.6205L12.8289 13.5148L12.8234 15.7992H11.1767L11.1713 13.5191L11.1017 12.6198L10.9201 9.76752L10.0649 7.65552L13.9351 7.65557Z" fill="#F5841F"/>
</svg>
