<svg width="24" height="24" viewBox="0 0 24 24" fill="none" xmlns="http://www.w3.org/2000/svg">
<path d="M22 12.1445C22 10.9157 21.0146 9.93969 19.8136 9.93969C19.2463 9.93891 18.7006 10.1591 18.2904 10.5542C16.7851 9.46977 14.724 8.76512 12.4302 8.67475L13.4336 3.93985L16.6952 4.6445C16.7313 5.47587 17.4121 6.14464 18.2546 6.14464C19.1147 6.14464 19.8136 5.43999 19.8136 4.57214C19.8136 3.70477 19.1149 3 18.2546 3C17.6453 3 17.1075 3.36144 16.8566 3.88561L13.2188 3.10848C13.1112 3.09024 13.0036 3.10848 12.9319 3.16272C12.8423 3.21696 12.7886 3.3072 12.7709 3.41569L11.6594 8.69264C9.32977 8.76512 7.23288 9.46977 5.70969 10.5723C5.29943 10.1772 4.7537 9.95709 4.18638 9.95793C2.9677 9.95793 2 10.9517 2 12.1627C2 13.0662 2.53752 13.8251 3.29043 14.1688C3.25387 14.3897 3.23587 14.6134 3.23664 14.8374C3.23664 18.2347 7.16148 21 12.0001 21C16.8389 21 20.7637 18.2529 20.7637 14.8374C20.7636 14.6135 20.7456 14.3899 20.7099 14.1688C21.4625 13.8251 22 13.048 22 12.1445ZM6.98203 13.7166C6.98203 12.8493 7.6808 12.1445 8.5414 12.1445C9.40153 12.1445 10.1004 12.8491 10.1004 13.7166C10.1004 14.5841 9.40165 15.2891 8.5414 15.2891C7.68092 15.3069 6.98203 14.5841 6.98203 13.7166ZM15.7098 17.8914C14.6345 18.9758 12.5914 19.0482 12.0001 19.0482C11.3908 19.0482 9.34786 18.9576 8.29019 17.8914C8.12918 17.7288 8.12918 17.4757 8.29019 17.3131C8.45156 17.1507 8.70241 17.1507 8.86377 17.3131C9.54492 18 10.9786 18.2347 12.0001 18.2347C13.0217 18.2347 14.4732 17.9998 15.1362 17.3131C15.2976 17.1507 15.5484 17.1507 15.7098 17.3131C15.8531 17.4757 15.8531 17.7288 15.7098 17.8914ZM15.4229 15.307C14.5627 15.307 13.8639 14.6024 13.8639 13.7349C13.8639 12.8674 14.5627 12.1627 15.4229 12.1627C16.2834 12.1627 16.9822 12.8674 16.9822 13.7349C16.9822 14.584 16.2834 15.307 15.4229 15.307Z" fill="#FF4500"/>
</svg>
