<svg width="46" height="46" viewBox="0 0 46 46" fill="none" xmlns="http://www.w3.org/2000/svg">
<path d="M39.5175 9.66746L25.9538 1.84795C24.9823 1.29233 23.8821 1 22.7623 1C21.6426 1 20.5424 1.29233 19.5709 1.84795L6.00714 9.66746C5.0366 10.2267 4.2307 11.0311 3.67047 11.9998C3.11024 12.9684 2.81542 14.0672 2.81567 15.1857V30.8088C2.81542 31.9272 3.11024 33.0261 3.67047 33.9947C4.2307 34.9634 5.0366 35.7678 6.00714 36.327L19.5709 44.1465C20.5412 44.7057 21.6419 45 22.7623 45C23.8828 45 24.9835 44.7057 25.9538 44.1465L39.5175 36.327C40.4881 35.7678 41.294 34.9634 41.8542 33.9947C42.4144 33.0261 42.7093 31.9272 42.709 30.8088V15.1857C42.7093 14.0672 42.4144 12.9684 41.8542 11.9998C41.294 11.0311 40.4881 10.2267 39.5175 9.66746ZM21.1666 4.61105C21.6511 4.32954 22.2017 4.18122 22.7623 4.18122C23.323 4.18122 23.8736 4.32954 24.3581 4.61105L37.9218 12.4226H37.9457L22.7623 21.3649L16.0044 17.3834L22.7623 13.4896L26.4245 15.5998L29.5681 13.7444L24.3581 10.7345C23.8729 10.4549 23.3226 10.3077 22.7623 10.3077C22.2021 10.3077 21.6518 10.4549 21.1666 10.7345L12.9167 15.4883C12.8963 15.4989 12.8775 15.5123 12.8608 15.5281L7.60287 12.4226L21.1666 4.61105ZM7.60287 33.5719C7.11702 33.2919 6.71369 32.8891 6.43354 32.404C6.15339 31.9189 6.00631 31.3687 6.00714 30.8088V15.1857L21.1905 24.1439V31.5971L14.5124 27.7511V23.905L11.3209 22.0178V27.7511C11.3215 28.3096 11.4692 28.8582 11.7493 29.3418C12.0294 29.8254 12.432 30.2269 12.9167 30.5062L21.1666 35.26H21.1905V41.3834H21.1666L7.60287 33.5719ZM39.5175 30.8088C39.5184 31.3687 39.3713 31.9189 39.0911 32.404C38.811 32.8891 38.4077 33.2919 37.9218 33.5719L24.382 41.3675V24.112L31.0123 20.2222V27.755L27.5735 29.7458V33.4166L32.608 30.5181C33.0927 30.2389 33.4953 29.8373 33.7754 29.3537C34.0554 28.8701 34.2032 28.3216 34.2037 27.763V18.339L39.5175 15.2096V30.8088Z" fill="#7B3FE4"/>
</svg>
