<svg width="24" height="24" viewBox="0 0 24 24" fill="none" xmlns="http://www.w3.org/2000/svg">
<path fill-rule="evenodd" clip-rule="evenodd" d="M15 9V7C15 5.34315 13.6569 4 12 4C10.3431 4 9 5.34315 9 7V9H7V7C7 4.23858 9.23858 2 12 2C14.7614 2 17 4.23858 17 7V9H15Z" fill="#7B3FE4"/>
<path opacity="0.4" fill-rule="evenodd" clip-rule="evenodd" d="M6 9C4.34315 9 3 10.3431 3 12V19C3 20.6569 4.34315 22 6 22H18C19.6569 22 21 20.6569 21 19V12C21 10.3431 19.6569 9 18 9H6ZM13.2537 19.0587C13.3852 19.1393 13.535 19.1816 13.6874 19.1811C13.8359 19.1873 13.9835 19.154 14.1163 19.0842L15.4662 18.2681C15.5984 18.1877 15.708 18.0723 15.7841 17.9336C15.8603 17.7948 15.9002 17.6376 15.9 17.4776V15.8456C15.9009 15.6861 15.8611 15.5293 15.7849 15.3913C15.7087 15.2532 15.5987 15.1389 15.4662 15.0601L14.1163 14.239C13.9838 14.1613 13.8344 14.1204 13.6825 14.1204C13.5306 14.1204 13.3813 14.1613 13.2488 14.239L10.2126 16.0751L8.96983 15.3202V13.7902L10.2126 13.0354L11.4651 13.7902C11.4735 13.9254 11.5329 14.0517 11.6302 14.1411C11.7276 14.2305 11.8549 14.2758 11.9841 14.2671C12.1134 14.2583 12.234 14.1961 12.3194 14.0942C12.4049 13.9924 12.4482 13.8591 12.4398 13.7239C12.4392 13.5648 12.3988 13.4086 12.3227 13.2708C12.2466 13.133 12.1375 13.0185 12.006 12.9385L10.6512 12.1224C10.5195 12.0422 10.3698 12 10.2175 12C10.0651 12 9.91542 12.0422 9.78371 12.1224L8.43374 12.9385C8.30231 13.0185 8.19314 13.133 8.11705 13.2708C8.04097 13.4086 8.00062 13.5648 8 13.7239V15.361C8.00062 15.5202 8.04097 15.6764 8.11705 15.8141C8.19314 15.9519 8.30231 16.0665 8.43374 16.1465L9.78371 16.9625C9.91542 17.0427 10.0651 17.0849 10.2175 17.0849C10.3698 17.0849 10.5195 17.0427 10.6512 16.9625L13.6874 15.1315L14.935 15.8609V17.3909L13.6923 18.1406L12.4398 17.3858C12.4314 17.2505 12.372 17.1243 12.2746 17.0349C12.1773 16.9455 12.05 16.9002 11.9208 16.9089C11.7915 16.9177 11.6709 16.9799 11.5854 17.0818C11.5 17.1836 11.4567 17.3169 11.4651 17.4521C11.4648 17.6121 11.5048 17.7693 11.5809 17.9081C11.657 18.0468 11.7667 18.1622 11.8988 18.2426L13.2537 19.0587Z" fill="#7B3FE4"/>
</svg>
