<svg width="24" height="24" viewBox="0 0 24 24" fill="none" xmlns="http://www.w3.org/2000/svg">
<path opacity="0.2" fill-rule="evenodd" clip-rule="evenodd" d="M13.0141 3.49338L8 6.00045L8.00606 6.00449C8.46284 6.00045 8.95918 6.00045 9.5 6.00045H18C18.3649 6.00045 18.6944 6.00045 18.9929 6.00469L19 6.00045L18.003 4.67109C17.0454 3.39425 16.5665 2.75583 15.861 2.58927C15.1555 2.42272 14.4417 2.77961 13.0141 3.49338Z" fill="#7B3FE4"/>
<path d="M16 13.5C16 13.0353 16 12.803 16.0384 12.6098C16.1962 11.8164 16.8164 11.1962 17.6098 11.0384C17.803 11 18.0353 11 18.5 11H22V16H18.5C18.0353 16 17.803 16 17.6098 15.9616C16.8164 15.8038 16.1962 15.1836 16.0384 14.3902C16 14.197 16 13.9647 16 13.5V13.5Z" fill="#7B3FE4"/>
<path opacity="0.4" fill-rule="evenodd" clip-rule="evenodd" d="M2.90796 7.46243C2 8.56878 2 10.2125 2 13.5C2 16.7875 2 18.4312 2.90796 19.5376C3.07418 19.7401 3.25989 19.9258 3.46243 20.092C4.56878 21 6.21252 21 9.5 21H18C19.8856 21 20.8284 21 21.4142 20.4142C22 19.8284 22 18.8856 22 17V10C22 8.11438 22 7.17157 21.4142 6.58579C20.8284 6 19.8856 6 18 6H9.5C6.21252 6 4.56878 6 3.46243 6.90796C3.25989 7.07418 3.07418 7.25989 2.90796 7.46243ZM6.75 9.5C6.33579 9.5 6 9.83579 6 10.25C6 10.6642 6.33579 11 6.75 11H10.25C10.6642 11 11 10.6642 11 10.25C11 9.83579 10.6642 9.5 10.25 9.5H6.75Z" fill="#7B3FE4"/>
<path d="M16 13.5C16 13.0353 16 12.803 16.0384 12.6098C16.1962 11.8164 16.8164 11.1962 17.6098 11.0384C17.803 11 18.0353 11 18.5 11H22V16H18.5C18.0353 16 17.803 16 17.6098 15.9616C16.8164 15.8038 16.1962 15.1836 16.0384 14.3902C16 14.197 16 13.9647 16 13.5Z" fill="#7B3FE4"/>
</svg>
